<svg xmlns="http://www.w3.org/2000/svg"><defs><font id="StalinistOne" horiz-adv-x="1028"><font-face font-family="Stalinist One" panose-1="2 0 5 7 0 0 0 2 0 4" ascent="1037" descent="-439" alphabetic="0"/><glyph glyph-name="space" horiz-adv-x="500"/><glyph unicode="!" glyph-name="exclam" horiz-adv-x="461" d="M100 0v142h261V0H100zm0 202v498h261V202H100z"/><glyph unicode="&quot;" glyph-name="quotedbl" horiz-adv-x="610" d="M40 700h230l-25-310H65L40 700zm300 0h230l-25-310H365l-25 310z"/><glyph unicode="#" glyph-name="numbersign" horiz-adv-x="1218" d="M40 145v142h200l63 126H139v142h234l72 145h216l-72-145h242l72 145h216l-72-145h131V413H977l-63-126h165V145H844L773 0H557l71 145H386L315 0H99l71 145H40zm407 139h256l67 132H514l-67-132z"/><glyph unicode="$" glyph-name="dollar" horiz-adv-x="1228" d="M90 0v230l261-38v-50h132v157L90 361v339h393v80h95v-80h71v80h95v-80h394V457l-261 40v61H744V401l394-62V0H744v-80h-95V0h-71v-80h-95V0H90zm261 463l132-21v116H351v-95zm227-321h71v131l-71 11V142zm0 285l71-11v142h-71V427zm166-285h133v95l-133 21V142z"/><glyph unicode="%" glyph-name="percent" horiz-adv-x="1458" d="M50 320v380h499V320H50zm162 107h175v166H212V427zM339 0l540 700h240L579 0H339zm570 0v380h499V0H909zm162 107h175v166h-175V107z"/><glyph unicode="&amp;" glyph-name="ampersand" horiz-adv-x="1137" d="M60 0v295l214 64-144 91v250h890V457l-261 40v61H391v-34l610-382h116V0H850L732 72 512 0H60zm260 142h146l102 33-140 87-108-32v-88z"/><glyph unicode="'" glyph-name="quotesingle" horiz-adv-x="320" d="M40 700h240l-25-310H65L40 700z"/><glyph unicode="(" glyph-name="parenleft" horiz-adv-x="459" d="M100-75v790l359 192V728l-128-68V-20l128-68v-179L100-75z"/><glyph unicode=")" glyph-name="parenright" horiz-adv-x="459" d="M0-88l128 68v680L0 728v179l359-192V-75L0-267v179z"/><glyph unicode="*" glyph-name="asterisk" horiz-adv-x="698" d="M40 320l167 96-167 96 71 123 167-96v191h142V539l167 96 71-123-167-96 167-96-71-123-167 96V102H278v191l-167-96-71 123z"/><glyph unicode="+" glyph-name="plus" horiz-adv-x="830" d="M50 279v142h294v279h142V421h294V279H486V0H344v279H50z"/><glyph unicode="," glyph-name="comma" horiz-adv-x="361" d="M50-133v275h261V0L50-133z"/><glyph unicode="-" glyph-name="hyphen" horiz-adv-x="788" d="M50 279v142h688V279H50z"/><glyph unicode="." glyph-name="period" horiz-adv-x="361" d="M50 0v162h261V0H50z"/><glyph unicode="/" glyph-name="slash" horiz-adv-x="810" d="M0 0l540 700h270L270 0H0z"/><glyph unicode="0" glyph-name="zero" horiz-adv-x="1229" d="M100 0v700h1029V0H100zm261 251l398 307H361V251zm109-109h398v307L470 142z"/><glyph unicode="1" glyph-name="one" horiz-adv-x="607" d="M80 0v142h166v294L80 356v176l427 205V0H80z"/><glyph unicode="2" glyph-name="two" horiz-adv-x="1228" d="M90 0v339l787 124v95H351v-61L90 457v243h1048V351L351 227v-85h526v50l261 38V0H90z"/><glyph unicode="3" glyph-name="three" horiz-adv-x="1208" d="M80 0v243l261-40v-61h516v51l-196 86H432v142h229l196 86v51H341v-61L80 457v243h1038V425l-229-75 229-75V0H80z"/><glyph unicode="4" glyph-name="four" horiz-adv-x="1166" d="M20 94v143l972 506V236h154V94H992V0H731v94H20zm336 142h375v196L356 236z"/><glyph unicode="5" glyph-name="five" horiz-adv-x="1238" d="M100 0v243l261-40v-61h526v85L100 351v349h1048V558H361v-85l787-124V0H100z"/><glyph unicode="6" glyph-name="six" horiz-adv-x="1229" d="M100 0v700h1039V467l-261 40v51H361v-77l778-131V0H100zm261 142h517v85l-517 87V142z"/><glyph unicode="7" glyph-name="seven" horiz-adv-x="1127" d="M40 471v229h1047V424L687 260V0H426v327l400 164v67H301v-47L40 471z"/><glyph unicode="8" glyph-name="eight" horiz-adv-x="1239" d="M90 0v261l157 89-157 90v260h1059V440l-157-90 157-89V0H90zm261 142h537v75l-108 63H459l-108-63v-75zm0 342l108-64h321l108 64v74H351v-74z"/><glyph unicode="9" glyph-name="nine" horiz-adv-x="1229" d="M90 0v233l261-40v-51h517v77L90 350v350h1039V0H90zm261 473l517-87v172H351v-85z"/><glyph unicode=":" glyph-name="colon" horiz-adv-x="361" d="M50 0v162h261V0H50zm0 538v162h261V538H50z"/><glyph unicode=";" glyph-name="semicolon" horiz-adv-x="361" d="M50-133v275h261V0L50-133zm0 671v162h261V538H50z"/><glyph unicode="&lt;" glyph-name="less" horiz-adv-x="712" d="M50 276v148l612 311V565L239 350l423-215V-35L50 276z"/><glyph unicode="=" glyph-name="equal" horiz-adv-x="788" d="M50 149v142h688V149H50zm0 260v142h688V409H50z"/><glyph unicode="&gt;" glyph-name="greater" horiz-adv-x="712" d="M50-35v170l423 215L50 565v170l612-311V276L50-35z"/><glyph unicode="?" glyph-name="question" horiz-adv-x="1127" d="M40 441v259h1047V331l-400-67v-62H426v174l400 68v114H301v-77L40 441zM426 0v142h261V0H426z"/><glyph unicode="@" glyph-name="at" horiz-adv-x="1495" d="M100 28v644l319 170h667l319-170V290l-319-170H522l-76 229 76 231h501V232h23l128 68v322l-128 68H459l-128-68V78l128-68h744v-152H419L100 28zm546 321l47-129h130v258H693l-47-129z"/><glyph unicode="A" glyph-name="A" horiz-adv-x="1129" d="M10 0l244 558H130v142h695L1129 0H859l-76 175H357L281 0H10zm409 317h302L615 558h-90L419 317z"/><glyph unicode="B" glyph-name="B" horiz-adv-x="1278" d="M0 558v142h1188V425l-229-75 229-75V0H149v558H0zm410-416h517v51l-197 86H410V142zm0 279h320l197 86v51H410V421z"/><glyph unicode="C" glyph-name="C" horiz-adv-x="1268" d="M0 558v142h1188V442l-261 36v80H410V142h517v80l261 36V0H149v558H0z"/><glyph unicode="D" glyph-name="D" horiz-adv-x="1277" d="M0 558v142h868l319-170V0H149v558H0zm411-416h516v348l-128 68H411V142z"/><glyph unicode="E" glyph-name="E" horiz-adv-x="1269" d="M0 558v142h1189V442l-261 36v80H411V421h425V279H411V142h517v80l261 36V0H150v558H0z"/><glyph unicode="F" glyph-name="F" horiz-adv-x="1135" d="M0 558v142h1105V447l-261 36v75H410V372h434V230H410V0H149v558H0z"/><glyph unicode="G" glyph-name="G" horiz-adv-x="1288" d="M0 558v142h1188V452l-261 36v70H410V142h517v95H716v142h472V0H149v558H0z"/><glyph unicode="H" glyph-name="H" horiz-adv-x="1287" d="M0 558v142h410V423h516v277h261V0H926v281H410V0H149v558H0z"/><glyph unicode="I" glyph-name="I" horiz-adv-x="510" d="M0 558v142h410V0H149v558H0z"/><glyph unicode="J" glyph-name="J" horiz-adv-x="1050" d="M40 0v263l261-36v-85h388v416H540v142h410V0H40z"/><glyph unicode="K" glyph-name="K" horiz-adv-x="1258" d="M0 115v179l149 40v366h261V405l511 138v157h261V434L790 328l225-178h173V0H860L531 259l-121-33V0H149v155L0 115z"/><glyph unicode="L" glyph-name="L" horiz-adv-x="1129" d="M0 558v142h410V142h418v85l261 36V0H149v558H0z"/><glyph unicode="M" glyph-name="M" horiz-adv-x="1469" d="M100 0v728l635-187 634 187V0h-346v142h85v342l-243-69V0H604v415l-243 69V142h85V0H100z"/><glyph unicode="N" glyph-name="N" horiz-adv-x="1239" d="M100 0v728l778-435v265h-85v142h346V0H918L361 320V142h85V0H100z"/><glyph unicode="O" glyph-name="O" horiz-adv-x="1239" d="M100 0v700h1039V0H100zm261 142h517v416H361V142z"/><glyph unicode="P" glyph-name="P" horiz-adv-x="1248" d="M0 138v157l149 25v380h1039V338L410 207V0H149v163L0 138zm410 226l517 87v107H410V364z"/><glyph unicode="Q" glyph-name="Q" horiz-adv-x="1228" d="M100 0v700h719l319-170V0H745v-115l-252-35V0H100zm261 142h135v78h246v-78h135v348l-128 68H361V142z"/><glyph unicode="R" glyph-name="R" horiz-adv-x="1269" d="M0 156v155l149 25v364h1039V356l-302-51L1229 0H868L583 254l-173-29V0H149v181L0 156zm410 226l517 87v89H410V382z"/><glyph unicode="S" glyph-name="S" horiz-adv-x="1208" d="M90 0v230l261-38v-50h506v88L90 351v349h1028V457l-261 40v61H351v-95l767-121V0H90z"/><glyph unicode="T" glyph-name="T" horiz-adv-x="1179" d="M30 420v280h1119V420l-261 36v102H720V0H459v558H291V456L30 420z"/><glyph unicode="U" glyph-name="U" horiz-adv-x="1287" d="M0 558v142h410V210l128-68h388v558h261V0H468L149 170v388H0z"/><glyph unicode="V" glyph-name="V" horiz-adv-x="1151" d="M-10 558v142h340l284-463 282 463h275L739 0H485L139 558H-10z"/><glyph unicode="W" glyph-name="W" horiz-adv-x="1538" d="M-10 558v142h348l185-469 178 469h244l178-476 185 476h250L1286 0H969L823 395 677 0H360L139 558H-10z"/><glyph unicode="X" glyph-name="X" horiz-adv-x="1180" d="M20 558v142h340l240-215 230 215h325L780 350l230-208h150V0H820L580 215 350 0H25l375 350-230 208H20z"/><glyph unicode="Y" glyph-name="Y" horiz-adv-x="1128" d="M-10 558v142h327l275-291 249 291h307L722 202V0H461v215L137 558H-10z"/><glyph unicode="Z" glyph-name="Z" horiz-adv-x="1228" d="M90 0v229l762 329H351v-81L90 437v263h1048V471L376 142h501v70l261 38V0H90z"/><glyph unicode="[" glyph-name="bracketleft" horiz-adv-x="490" d="M100-172v984h390V670H331V-30h159v-142H100z"/><glyph unicode="\" glyph-name="backslash" horiz-adv-x="810" d="M0 700h270L810 0H540L0 700z"/><glyph unicode="]" glyph-name="bracketright" horiz-adv-x="490" d="M0-30h159v700H0v142h390v-984H0v142z"/><glyph unicode="^" glyph-name="asciicircum" horiz-adv-x="718" d="M0 310l285 390h148l285-390H541L359 560 177 310H0z"/><glyph unicode="_" glyph-name="underscore" horiz-adv-x="600" d="M0 0h600v-142H0V0z"/><glyph unicode="`" glyph-name="grave" horiz-adv-x="380" d="M20 700h250l90-230H160L20 700z"/><glyph unicode="a" glyph-name="a" horiz-adv-x="1075" d="M90 0v265l645 80v55H340v-45L90 330v200h895V0H806l-51 50-50-50H90zm250 130h395v94l-395-49v-45z"/><glyph unicode="b" glyph-name="b" horiz-adv-x="1110" d="M0 570v130h375V550l645-80V0H405l-50 50-51-50H125v570H0zm375-440h395v245l-395 50V130z"/><glyph unicode="c" glyph-name="c" horiz-adv-x="1090" d="M0 400v130h1010V330l-250 25v45H375V130h385v45l250 25V0H125v400H0z"/><glyph unicode="d" glyph-name="d" horiz-adv-x="1075" d="M90 0v470l645 80v150h250V0H806l-51 50-50-50H90zm250 130h395v295l-395-50V130z"/><glyph unicode="e" glyph-name="e" horiz-adv-x="1100" d="M0 400v130h1010V265l-635-90v-45h385v45l250 25V0H125v400H0zm375-96l385 51v45H375v-96z"/><glyph unicode="f" glyph-name="f" horiz-adv-x="830" d="M0 290v130h125v160l245 120h500V480l-250 25v65H435l-60-30V420h295V290H375V0H125v290H0z"/><glyph unicode="g" glyph-name="g" horiz-adv-x="1075" d="M90 30L340 5v-45h395v70L90 110v420h615l50-50 51 50h179v-700H90V30zm250 175l395-50v245H340V205z"/><glyph unicode="h" glyph-name="h" horiz-adv-x="1075" d="M90 0v700h250V550l645-80V0H735v375l-395 50V0H90z"/><glyph unicode="i" glyph-name="i" horiz-adv-x="465" d="M0 400v130h375V0H125v400H0zm125 200v140h250V600H125z"/><glyph unicode="j" glyph-name="j" horiz-adv-x="525" d="M-170-40h295l60 30v410H60v130h375V-50L190-170h-360v130zm355 640v140h250V600H185z"/><glyph unicode="k" glyph-name="k" horiz-adv-x="1070" d="M0 86v154l125 29v431h250V325l375 85v120h250V315l-295-66 140-119h155V0H705L480 200l-105-25V0H125v115L0 86z"/><glyph unicode="l" glyph-name="l" horiz-adv-x="465" d="M90 0v700h250V130h125V0H90z"/><glyph unicode="m" glyph-name="m" horiz-adv-x="1460" d="M90 0v530h179l51-50 50 50h255l110-55 110 55h290l245-120V0h-250v370l-60 30H910l-50-25V0H610v375l-50 25H340V0H90z"/><glyph unicode="n" glyph-name="n" horiz-adv-x="1065" d="M90 0v530h179l51-50 50 50h370l245-120V0H735v370l-60 30H340V0H90z"/><glyph unicode="o" glyph-name="o" horiz-adv-x="1085" d="M90 0v530h905V0H90zm250 130h405v270H340V130z"/><glyph unicode="p" glyph-name="p" horiz-adv-x="1110" d="M0 400v130h305l50-50 50 50h615V60L375-20v-150H125v570H0zm375-295l395 50v245H375V105z"/><glyph unicode="q" glyph-name="q" horiz-adv-x="1075" d="M90 60v470h615l50-50 51 50h179v-700H735v150L90 60zm250 95l395-50v295H340V155z"/><glyph unicode="r" glyph-name="r" horiz-adv-x="940" d="M0 400v130h304l51-50 50 50h505V310l-250 25v65H375V0H125v400H0z"/><glyph unicode="s" glyph-name="s" horiz-adv-x="1065" d="M90 0v200l250-25v-45h385v45L90 265v265h885V330l-250 25v45H340v-40l635-90V0H90z"/><glyph unicode="t" glyph-name="t" horiz-adv-x="840" d="M0 400v130h125v170h250V530h245V400H375V160l60-30h385V0H370L125 120v280H0z"/><glyph unicode="u" glyph-name="u" horiz-adv-x="1110" d="M0 400v130h375V160l60-30h335v400h250V0H841l-51 50-50-50H370L125 120v280H0z"/><glyph unicode="v" glyph-name="v" horiz-adv-x="1040" d="M-10 400v130h305l240-320 240 320h275L655 0H415L110 400H-10z"/><glyph unicode="w" glyph-name="w" horiz-adv-x="1344" d="M-10 400v130h299l145-315 175 315h185l175-315 145 315h240L1109 0H854L704 265 549 0H294L110 400H-10z"/><glyph unicode="x" glyph-name="x" horiz-adv-x="1000" d="M20 0l280 265-160 135H20v130h285l200-170 180 170h295L700 265l160-135h120V0H695L495 170 315 0H20z"/><glyph unicode="y" glyph-name="y" horiz-adv-x="1010" d="M-10 400v130h295l265-330 215 330h265L560-170H250v130h130l45 65-315 375H-10z"/><glyph unicode="z" glyph-name="z" horiz-adv-x="1065" d="M90 0v205l615 195H340v-45L90 330v200h885V325L360 130h365v45l250 25V0H90z"/><glyph unicode="{" glyph-name="braceleft" horiz-adv-x="536" d="M0 269v102l146 106v335h390V670H377V415l-169-95 169-95V-30h159v-142H146v335L0 269z"/><glyph unicode="|" glyph-name="bar" horiz-adv-x="461" d="M100-142v984h261v-984H100z"/><glyph unicode="}" glyph-name="braceright" horiz-adv-x="536" d="M0-30h159v255l169 95-169 95v255H0v142h390V477l146-106V269L390 163v-335H0v142z"/><glyph unicode="~" glyph-name="asciitilde" horiz-adv-x="760" d="M50 220v186l190 70 269-92 201 76V274l-190-70-269 92-201-76z"/><glyph glyph-name="uni00A0" horiz-adv-x="0"/><glyph unicode="¡" glyph-name="exclamdown" horiz-adv-x="461" d="M100 0v498h261V0H100zm0 558v142h261V558H100z"/><glyph unicode="¢" glyph-name="cent" horiz-adv-x="1219" d="M100 0v700h390v100h261V700h388V442l-261 36v80H361V142h517v80l261 36V0H751v-100H490V0H100z"/><glyph unicode="£" glyph-name="sterling" horiz-adv-x="1149" d="M70 0v142h99v147H70v142h99v269h679V558H430V431h198V289H430V142h418v85l261 36V0H70z"/><glyph unicode="¤" glyph-name="currency" horiz-adv-x="1250" d="M40 118v80l870 147L1210 0H849L663 214l-272-46V0H130v133l-90-15zm0 122v80l90 15v365h1039V431L40 240zm351 145l517 87v86H391V385z"/><glyph unicode="¥" glyph-name="yen" horiz-adv-x="1092" d="M-10 700h307l249-280 249 280h307L771 329h69V217H676v-61h164V44H676V0H415v44H252v112h163l1 61H252v112h68L-10 700z"/><glyph unicode="¦" glyph-name="brokenbar" horiz-adv-x="461" d="M100-142v421h261v-421H100zm0 563v421h261V421H100z"/><glyph unicode="§" glyph-name="section" horiz-adv-x="1011" d="M90 80v178l180 96-170 52v294h798V558H351v-60l570-178V142L741 46 911-6v-294H113v142h547v60L90 80zm261 88l194-60 115 62v62l-194 60-115-62v-62z"/><glyph unicode="¨" glyph-name="dieresis" horiz-adv-x="589" d="M0 775v209h262v-90L0 775zm327 0v209h262v-90L327 775z"/><glyph unicode="©" glyph-name="copyright" horiz-adv-x="1505" d="M100 28v644l319 170h667l319-170V28l-319-170H419L100 28zm231 50l128-68h587l128 68v544l-128 68H459l-128-68V78zm115 271l76 231h501V409l-200 20v50H695l-49-130 49-129h128v50l200 20V120H522l-76 229z"/><glyph unicode="ª" glyph-name="ordfeminine" horiz-adv-x="726" d="M50 321l132 282h-67v97h396l165-379H511l-33 75H249l-33-75H50zm241 172h146l-49 110h-49l-48-110z"/><glyph unicode="«" glyph-name="guillemotleft" horiz-adv-x="847" d="M0 270l267 260h227L229 270 494 10H267L0 270zm353 0l267 260h227L582 270 847 10H620L353 270z"/><glyph unicode="¬" glyph-name="logicalnot" horiz-adv-x="788" d="M50 389v142h688V240H576v149H50z"/><glyph unicode="­" glyph-name="uni00AD" horiz-adv-x="788" d="M50 279v142h688V279H50z"/><glyph unicode="®" glyph-name="registered" horiz-adv-x="1505" d="M100 28v644l319 170h667l319-170V28l-319-170H419L100 28zm231 50l128-68h587l128 68v544l-128 68H459l-128-68V78zm130 42v460h567V343l-111-23 161-200H859L727 282l-66-13V120H461zm200 252l167 33v74H661V372z"/><glyph unicode="°" glyph-name="degree" horiz-adv-x="568" d="M50 320v380h468V320H50zm162 97h144v186H212V417z"/><glyph unicode="±" glyph-name="plusminus" horiz-adv-x="830" d="M50 326v142h294v232h142V468h294V326H486V60H344v266H50zm5-286v142h720V40H55z"/><glyph unicode="²" glyph-name="uni00B2" horiz-adv-x="617" d="M50 321v189l366 77v16H201v-28L50 553v147h517V511l-366-77v-16h215v22l151 21V321H50z"/><glyph unicode="³" glyph-name="uni00B3" horiz-adv-x="622" d="M50 321v137l151-22v-18h220v7l-106 37h-84v97h84l106 37v7H201v-18L50 563v137h522V551l-124-40 124-41V321H50z"/><glyph unicode="´" glyph-name="acute" horiz-adv-x="340" d="M0 730l90 230h250L200 730H0z"/><glyph unicode="µ" glyph-name="mu" horiz-adv-x="1054" d="M90-270v800h249V265l228-135h148v400h249V0H487L339 87v-227L90-270z"/><glyph unicode="¶" glyph-name="paragraph" horiz-adv-x="1015" d="M60 275v360l281 65h654V558H853v-858H711v858H602v-858H341v510L60 275z"/><glyph unicode="·" glyph-name="middot" horiz-adv-x="501" d="M120 269v162h261V269H120z"/><glyph unicode="¸" glyph-name="cedilla" horiz-adv-x="311" d="M0-187h186v34L20-113V40h125v-70l166-40v-220H0v103z"/><glyph unicode="¹" glyph-name="uni00B9" horiz-adv-x="340" d="M50 321v96h89v137l-89-39v105l240 110V321H50z"/><glyph unicode="º" glyph-name="ordmasculine" horiz-adv-x="629" d="M50 320v380h529V320H50zm152 146l166 147H202V466zm59-59h166v147L261 407z"/><glyph unicode="»" glyph-name="guillemotright" horiz-adv-x="847" d="M0 10l265 260L0 530h227l267-260L227 10H0zm353 0l265 260-265 260h227l267-260L580 10H353z"/><glyph unicode="¼" glyph-name="onequarter" horiz-adv-x="1166" d="M50 321v96h89v137l-89-39v105l240 110V321H50zM110 0l540 700h240L350 0H110zm421 41v96l502 272V137h83V41h-83V0H883v41H531zm191 96h161v87l-161-87z"/><glyph unicode="½" glyph-name="onehalf" horiz-adv-x="1258" d="M50 321v96h89v137l-89-39v105l240 110V321H50zM110 0l540 700h240L350 0H110zm581 0v189l366 77v16H842v-28l-151-22v147h517V190l-366-77V97h215v22l151 21V0H691z"/><glyph unicode="¾" glyph-name="threequarters" horiz-adv-x="1408" d="M50 321v137l151-22v-18h220v7l-106 37h-84v97h84l106 37v7H201v-18L50 563v137h522V551l-124-40 124-41V321H50zM352 0l540 700h240L592 0H352zm421 41v96l502 272V137h83V41h-83V0h-150v41H773zm191 96h161v87l-161-87z"/><glyph unicode="¿" glyph-name="questiondown" horiz-adv-x="1127" d="M40 0v369l400 67v62h261V324l-400-68V142h525v77l261 40V0H40zm400 558v142h261V558H440z"/><glyph unicode="À" glyph-name="Agrave" horiz-adv-x="1129" d="M10 0l244 558H130v142h695L1129 0H859l-76 175H357L281 0H10zm297 1020h250l90-230H447l-140 230zm112-703h302L615 558h-90L419 317z"/><glyph unicode="Á" glyph-name="Aacute" horiz-adv-x="1129" d="M10 0l244 558H130v142h695L1129 0H859l-76 175H357L281 0H10zm397 790l90 230h250L607 790H407zm12-473h302L615 558h-90L419 317z"/><glyph unicode="Â" glyph-name="Acircumflex" horiz-adv-x="1129" d="M10 0l244 558H130v142h695L1129 0H859l-76 175H357L281 0H10zm320 745v169l240 80 240-80V745l-240 89-240-89zm89-428h302L615 558h-90L419 317z"/><glyph unicode="Ã" glyph-name="Atilde" horiz-adv-x="1129" d="M10 0l244 558H130v142h695L1129 0H859l-76 175H357L281 0H10zm340 750v149l140 75 140-74 140 74V825l-140-75-140 74-140-74zm69-433h302L615 558h-90L419 317z"/><glyph unicode="Ä" glyph-name="Adieresis" horiz-adv-x="1129" d="M10 0l244 558H130v142h695L1129 0H859l-76 175H357L281 0H10zm263 755v209h262v-90L273 755zm146-438h302L615 558h-90L419 317zm181 438v209h262v-90L600 755z"/><glyph unicode="Å" glyph-name="Aring" horiz-adv-x="1129" d="M10 0l244 558H130v142h695L1129 0H859l-76 175H357L281 0H10zm400 787v250h315V787H410zm9-470h302L615 558h-90L419 317zm96 553h105v84H515v-84z"/><glyph unicode="Æ" glyph-name="AE" horiz-adv-x="1848" d="M10 0l244 558H130v142h1638V442l-261 36v80h-447V421h355V279h-355V142h447v80l261 36V0H799v175H357L281 0H10zm409 317h380v241H525L419 317z"/><glyph unicode="Ç" glyph-name="Ccedilla" horiz-adv-x="1268" d="M0 558v142h1188V442l-261 36v80H410V142h517v80l261 36V0H694v-30l166-40v-220H549v103h186v34l-166 40V0H149v558H0z"/><glyph unicode="È" glyph-name="Egrave" horiz-adv-x="1269" d="M0 558v142h1189V442l-261 36v80H411V421h425V279H411V142h517v80l261 36V0H150v558H0zm437 462h250l90-230H577l-140 230z"/><glyph unicode="É" glyph-name="Eacute" horiz-adv-x="1269" d="M0 558v142h1189V442l-261 36v80H411V421h425V279H411V142h517v80l261 36V0H150v558H0zm557 232l90 230h250L757 790H557z"/><glyph unicode="Ê" glyph-name="Ecircumflex" horiz-adv-x="1269" d="M0 558v142h1189V442l-261 36v80H411V421h425V279H411V142h517v80l261 36V0H150v558H0zm420 187v169l240 80 240-80V745l-240 89-240-89z"/><glyph unicode="Ë" glyph-name="Edieresis" horiz-adv-x="1269" d="M0 558v142h1189V442l-261 36v80H411V421h425V279H411V142h517v80l261 36V0H150v558H0zm393 197v209h262v-90L393 755zm327 0v209h262v-90L720 755z"/><glyph unicode="Ì" glyph-name="Igrave" horiz-adv-x="510" d="M0 558v142h410V0H149v558H0zm45 462h250l90-230H185L45 1020z"/><glyph unicode="Í" glyph-name="Iacute" horiz-adv-x="514" d="M0 558v142h410V0H149v558H0zm174 232l90 230h250L374 790H174z"/><glyph unicode="Î" glyph-name="Icircumflex" horiz-adv-x="519" d="M0 558v142h410V0H149v558H0zm39 197v169l240 80 240-80V755l-240 89-240-89z"/><glyph unicode="Ï" glyph-name="Idieresis" horiz-adv-x="539" d="M0 755v209h262v-90L0 755zm8-197v142h410V0H157v558H8zm319 197v209h262v-90L327 755z"/><glyph unicode="Ð" glyph-name="Eth" horiz-adv-x="1288" d="M50 279v142h110v279h719l319-170V0H160v279H50zm371-137h516v348l-128 68H421V421h107V279H421V142z"/><glyph unicode="Ñ" glyph-name="Ntilde" horiz-adv-x="1239" d="M100 0v728l778-435v265h-85v142h346V0H918L361 320V142h85V0H100zm310 730v149l140 75 140-74 140 74V805l-140-75-140 74-140-74z"/><glyph unicode="Ò" glyph-name="Ograve" horiz-adv-x="1239" d="M100 0v700h1039V0H100zm261 142h517v416H361V142zm26 878h250l90-230H527l-140 230z"/><glyph unicode="Ó" glyph-name="Oacute" horiz-adv-x="1239" d="M100 0v700h1039V0H100zm261 142h517v416H361V142zm146 648l90 230h250L707 790H507z"/><glyph unicode="Ô" glyph-name="Ocircumflex" horiz-adv-x="1239" d="M100 0v700h1039V0H100zm261 142h517v416H361V142zm9 603v169l240 80 240-80V745l-240 89-240-89z"/><glyph unicode="Õ" glyph-name="Otilde" horiz-adv-x="1239" d="M100 0v700h1039V0H100zm261 142h517v416H361V142zm39 608v149l140 75 140-74 140 74V825l-140-75-140 74-140-74z"/><glyph unicode="Ö" glyph-name="Odieresis" horiz-adv-x="1239" d="M100 0v700h1039V0H100zm233 755v209h262v-90L333 755zm28-613h517v416H361V142zm299 613v209h262v-90L660 755z"/><glyph unicode="×" glyph-name="multiply" horiz-adv-x="716" d="M50 143l208 207L50 558l100 101 208-208 208 208 100-101-208-208 208-207L566 42 358 250 150 42 50 143z"/><glyph unicode="Ø" glyph-name="Oslash" horiz-adv-x="1229" d="M100 0v700h1029V0H100zm261 251l398 307H361V251zm109-109h398v307L470 142z"/><glyph unicode="Ù" glyph-name="Ugrave" horiz-adv-x="1287" d="M0 558v142h410V210l128-68h388v558h261V0H468L149 170v388H0zm456 402h250l90-230H596L456 960z"/><glyph unicode="Ú" glyph-name="Uacute" horiz-adv-x="1287" d="M0 558v142h410V210l128-68h388v558h261V0H468L149 170v388H0zm566 172l90 230h250L766 730H566z"/><glyph unicode="Û" glyph-name="Ucircumflex" horiz-adv-x="1287" d="M0 558v142h410V210l128-68h388v558h261V0H468L149 170v388H0zm428 167v169l240 80 240-80V725l-240 89-240-89z"/><glyph unicode="Ü" glyph-name="Udieresis" horiz-adv-x="1287" d="M0 558v142h410V210l128-68h388v558h261V0H468L149 170v388H0zm412 187v209h262v-90L412 745zm327 0v209h262v-90L739 745z"/><glyph unicode="Ý" glyph-name="Yacute" horiz-adv-x="1128" d="M-10 558v142h327l275-291 249 291h307L722 202V0H461v215L137 558H-10zm487 162l90 230h250L677 720H477z"/><glyph unicode="Þ" glyph-name="Thorn" horiz-adv-x="1199" d="M100 0v700h261V600h778V208L361 77V0H100zm261 234l517 87v137H361V234z"/><glyph unicode="ß" glyph-name="germandbls" horiz-adv-x="1179" d="M100 0v700h917V455L728 347l391-71V0H504v130h365v53l-360 71v160l258 103v53H350V0H100z"/><glyph unicode="à" glyph-name="agrave" horiz-adv-x="1075" d="M90 0v265l645 80v55H340v-45L90 330v200h895V0H806l-51 50-50-50H90zm250 130h395v94l-395-49v-45zm2 700h240l80-220H472L342 830z"/><glyph unicode="á" glyph-name="aacute" horiz-adv-x="1075" d="M90 0v265l645 80v55H340v-45L90 330v200h895V0H806l-51 50-50-50H90zm250 130h395v94l-395-49v-45zm102 480l80 220h240L632 610H442z"/><glyph unicode="â" glyph-name="acircumflex" horiz-adv-x="1075" d="M90 0v265l645 80v55H340v-45L90 330v200h895V0H806l-51 50-50-50H90zm219 584v159l220 70 220-70V584l-220 79-220-79zm31-454h395v94l-395-49v-45z"/><glyph unicode="ã" glyph-name="atilde" horiz-adv-x="1075" d="M90 0v265l645 80v55H340v-45L90 330v200h895V0H806l-51 50-50-50H90zm240 580v149l140 75 140-74 140 74V655l-140-75-140 74-140-74zm10-450h395v94l-395-49v-45z"/><glyph unicode="ä" glyph-name="adieresis" horiz-adv-x="1075" d="M90 0v265l645 80v55H340v-45L90 330v200h895V0H806l-51 50-50-50H90zm183 575v209h252v-90L273 575zm67-445h395v94l-395-49v-45zm250 445v209h252v-90L590 575z"/><glyph unicode="å" glyph-name="aring" horiz-adv-x="1075" d="M90 0v265l645 80v55H340v-45L90 330v200h895V0H806l-51 50-50-50H90zm250 130h395v94l-395-49v-45zm40 467v250h315V597H380zm105 83h105v84H485v-84z"/><glyph unicode="æ" glyph-name="ae" horiz-adv-x="1600" d="M90 0v265l585 80v55H340v-45L90 330v200h1420V266l-585-90v-46h335v45l250 25V0H90zm250 130h335v94l-335-49v-45zm585 175l335 51v44H925v-95z"/><glyph unicode="ç" glyph-name="ccedilla" horiz-adv-x="1090" d="M0 400v130h1010V330l-250 25v45H375V130h385v45l250 25V0H585v-30l166-40v-220H440v103h186v34l-166 40V0H125v400H0z"/><glyph unicode="è" glyph-name="egrave" horiz-adv-x="1100" d="M0 400v130h1010V265l-635-90v-45h385v45l250 25V0H125v400H0zm332 430h240l80-220H462L332 830zm43-526l385 51v45H375v-96z"/><glyph unicode="é" glyph-name="eacute" horiz-adv-x="1100" d="M0 400v130h1010V265l-635-90v-45h385v45l250 25V0H125v400H0zm375-96l385 51v45H375v-96zm67 306l80 220h240L632 610H442z"/><glyph unicode="ê" glyph-name="ecircumflex" horiz-adv-x="1100" d="M0 400v130h1010V265l-635-90v-45h385v45l250 25V0H125v400H0zm339 184v159l220 70 220-70V584l-220 79-220-79zm36-280l385 51v45H375v-96z"/><glyph unicode="ë" glyph-name="edieresis" horiz-adv-x="1100" d="M0 400v130h1010V265l-635-90v-45h385v45l250 25V0H125v400H0zm263 175v209h252v-90L263 575zm112-271l385 51v45H375v-96zm205 271v209h252v-90L580 575z"/><glyph unicode="ì" glyph-name="igrave" horiz-adv-x="465" d="M0 400v130h375V0H125v400H0zm32 420h240l80-220H162L32 820z"/><glyph unicode="í" glyph-name="iacute" horiz-adv-x="476" d="M0 400v130h375V0H125v400H0zm126 200l80 220h240L316 600H126z"/><glyph unicode="î" glyph-name="icircumflex" horiz-adv-x="490" d="M0 584v159l220 70 220-70V584l-220 79L0 584zm11-184v130h375V0H136v400H11z"/><glyph unicode="ï" glyph-name="idieresis" horiz-adv-x="499" d="M-20 575v209h252v-90L-20 575zm37-175v130h375V0H142v400H17zm280 175v209h252v-90L297 575z"/><glyph unicode="ð" glyph-name="eth" horiz-adv-x="1075" d="M90 0v430h645v38l-290 63-15-69-146 32 15 69-169 37 30 145 174-38 20 88 146-32-19-88 504-110V0H90zm250 130h395v170H340V130z"/><glyph unicode="ñ" glyph-name="ntilde" horiz-adv-x="1065" d="M90 0v530h179l51-50 50 50h370l245-120V0H735v370l-60 30H340V0H90zm250 580v149l140 75 140-74 140 74V655l-140-75-140 74-140-74z"/><glyph unicode="ò" glyph-name="ograve" horiz-adv-x="1085" d="M90 0v530h905V0H90zm242 830h240l80-220H462L332 830zm8-700h405v270H340V130z"/><glyph unicode="ó" glyph-name="oacute" horiz-adv-x="1085" d="M90 0v530h905V0H90zm250 130h405v270H340V130zm93 480l80 220h240L623 610H433z"/><glyph unicode="ô" glyph-name="ocircumflex" horiz-adv-x="1085" d="M90 0v530h905V0H90zm229 584v159l220 70 220-70V584l-220 79-220-79zm21-454h405v270H340V130z"/><glyph unicode="õ" glyph-name="otilde" horiz-adv-x="1085" d="M90 0v530h905V0H90zm240 580v149l140 75 140-74 140 74V655l-140-75-140 74-140-74zm10-450h405v270H340V130z"/><glyph unicode="ö" glyph-name="odieresis" horiz-adv-x="1085" d="M90 0v530h905V0H90zm183 575v209h252v-90L273 575zm67-445h405v270H340V130zm250 445v209h252v-90L590 575z"/><glyph unicode="÷" glyph-name="divide" horiz-adv-x="788" d="M50 279v142h688V279H50zM263 17v162h261V17H263zm0 504v162h261V521H263z"/><glyph unicode="ø" glyph-name="oslash" horiz-adv-x="1085" d="M90 0v530h905V0H90zm250 210l325 190H340V210zm80-80h325v190L420 130z"/><glyph unicode="ù" glyph-name="ugrave" horiz-adv-x="1110" d="M0 400v130h375V160l60-30h335v400h250V0H841l-51 50-50-50H370L125 120v280H0zm352 380h240l80-220H482L352 780z"/><glyph unicode="ú" glyph-name="uacute" horiz-adv-x="1110" d="M0 400v130h375V160l60-30h335v400h250V0H841l-51 50-50-50H370L125 120v280H0zm462 160l80 220h240L652 560H462z"/><glyph unicode="û" glyph-name="ucircumflex" horiz-adv-x="1110" d="M0 400v130h375V160l60-30h335v400h250V0H841l-51 50-50-50H370L125 120v280H0zm354 164v159l220 70 220-70V564l-220 79-220-79z"/><glyph unicode="ü" glyph-name="udieresis" horiz-adv-x="1110" d="M0 400v130h375V160l60-30h335v400h250V0H841l-51 50-50-50H370L125 120v280H0zm293 165v209h252v-90L293 565zm317 0v209h252v-90L610 565z"/><glyph unicode="ý" glyph-name="yacute" horiz-adv-x="1010" d="M-10 400v130h295l265-330 215 330h265L560-170H250v130h130l45 65-315 375H-10zm442 160l80 220h240L622 560H432z"/><glyph unicode="þ" glyph-name="thorn" horiz-adv-x="1075" d="M90-170v870h250V530h645V60L340-20v-150H90zm250 275l395 50v245H340V105z"/><glyph unicode="ÿ" glyph-name="ydieresis" horiz-adv-x="1010" d="M-10 400v130h295l265-330 215 330h265L560-170H250v130h130l45 65-315 375H-10zm283 165v209h252v-90L273 565zm317 0v209h252v-90L590 565z"/><glyph unicode="–" glyph-name="endash" horiz-adv-x="721" d="M50 290v142h621V290H50z"/><glyph unicode="—" glyph-name="emdash" horiz-adv-x="981" d="M50 290v142h881V290H50z"/><glyph unicode="‘" glyph-name="quoteleft" horiz-adv-x="361" d="M50 425v142l261 133V425H50z"/><glyph unicode="’" glyph-name="quoteright" horiz-adv-x="361" d="M50 425v275h261V558L50 425z"/><glyph unicode="‚" glyph-name="quotesinglbase" horiz-adv-x="361" d="M50-133v275h261V0L50-133z"/><glyph unicode="“" glyph-name="quotedblleft" horiz-adv-x="701" d="M50 425v142l261 133V425H50zm340 0v142l261 133V425H390z"/><glyph unicode="”" glyph-name="quotedblright" horiz-adv-x="701" d="M50 425v275h261V558L50 425zm340 0v275h261V558L390 425z"/><glyph unicode="„" glyph-name="quotedblbase" horiz-adv-x="701" d="M50-133v275h261V0L50-133zm340 0v275h261V0L390-133z"/><glyph unicode="•" glyph-name="bullet" horiz-adv-x="597" d="M110 181v340h377V181H110z"/><glyph unicode="‹" glyph-name="guilsinglleft" horiz-adv-x="475" d="M50 281v138l375 281V514L209 350l216-164V0L50 281z"/><glyph unicode="›" glyph-name="guilsinglright" horiz-adv-x="475" d="M50 0v186l216 164L50 514v186l375-281V281L50 0z"/></font>
</defs>
</svg>
